<svg width="20" height="24" viewBox="0 0 20 24" fill="none" xmlns="http://www.w3.org/2000/svg">
<path d="M16.5499 12.7504C16.5836 16.3824 19.736 17.591 19.771 17.6065C19.7443 17.6917 19.2673 19.3289 18.1101 21.0199C17.1098 22.482 16.0716 23.9386 14.4362 23.9688C12.8292 23.9984 12.3124 23.0159 10.4752 23.0159C8.63846 23.0159 8.06433 23.9386 6.54313 23.9984C4.9645 24.0582 3.76239 22.4174 2.75377 20.9608C0.692767 17.9811 -0.882264 12.5409 1.2326 8.86873C2.28322 7.0451 4.16076 5.8903 6.19867 5.86069C7.74884 5.83112 9.21202 6.9036 10.1597 6.9036C11.1067 6.9036 12.8848 5.61385 14.754 5.80327C15.5365 5.83584 17.7331 6.11936 19.1435 8.18392C19.0299 8.25437 16.5226 9.71399 16.5499 12.7504M13.5297 3.83196C14.3678 2.81747 14.9319 1.4052 14.778 0C13.5699 0.0485534 12.1091 0.805022 11.2426 1.81896C10.466 2.71684 9.78593 4.15397 9.96943 5.53135C11.316 5.63553 12.6915 4.8471 13.5297 3.83196" fill="black"/>
</svg>
