<svg width="24" height="24" viewBox="0 0 24 24" fill="none" xmlns="http://www.w3.org/2000/svg">
<path d="M23.7602 12.2666C23.7602 11.2799 23.6802 10.5599 23.5069 9.81328H12.2402V14.2666H18.8535C18.7202 15.3733 18.0002 17.0399 16.4002 18.1599L16.3778 18.309L19.9401 21.0686L20.1869 21.0933C22.4535 18.9999 23.7602 15.9199 23.7602 12.2666Z" fill="#4285F4"/>
<path d="M12.2391 23.9999C15.479 23.9999 18.199 22.9332 20.1857 21.0933L16.399 18.1599C15.3857 18.8666 14.0257 19.3599 12.2391 19.3599C9.06576 19.3599 6.37245 17.2666 5.41236 14.3733L5.27163 14.3852L1.56748 17.2519L1.51904 17.3866C3.49236 21.3065 7.5457 23.9999 12.2391 23.9999Z" fill="#34A853"/>
<path d="M5.41327 14.3733C5.15994 13.6266 5.01333 12.8265 5.01333 11.9999C5.01333 11.1732 5.15994 10.3732 5.39994 9.62657L5.39323 9.46755L1.64267 6.55482L1.51996 6.61319C0.706662 8.23988 0.23999 10.0666 0.23999 11.9999C0.23999 13.9332 0.706662 15.7598 1.51996 17.3865L5.41327 14.3733Z" fill="#FBBC05"/>
<path d="M12.2391 4.63997C14.4924 4.63997 16.0123 5.6133 16.879 6.42669L20.2657 3.12C18.1858 1.18667 15.479 0 12.2391 0C7.5457 0 3.49236 2.69331 1.51904 6.61328L5.39903 9.62666C6.37245 6.73333 9.06576 4.63997 12.2391 4.63997Z" fill="#EB4335"/>
</svg>
